<?xml version="1.0" encoding="utf-8"?>
<svg xmlns="http://www.w3.org/2000/svg" width="1024" height="1024" viewBox="0 0 1024 1024">
<g style="fill:#0056A8"><rect x="11.7" y="11.7" width="1000.6" height="1000.6" rx="60.9" ry="60.9"/>
<g style="fill:#FFFFFF"><circle cx="512.2" cy="276.4" r="116"/>
<path d="M610.3,423.8c12.7,0,24.2,1.6,34.4,4.9c18.9,6,33.5,17.2,45,30c19.9,22.2,36.3,54.1,54,86
	c16.9,30.4,36.4,63.1,36,104c-0.4,40.7-19.9,70.1-40,92c-27.2,29.7-63.2,65.7-118,65c-27.6-0.4-53.4-15.9-49-48
	c3.4-24.8,26.1-35.3,40-52c-68.3,7.1-97.8-27.5-124-69c-10.8-17.1-17.7-42-39-46c-42.5-8-37.4,40.9-27,68c3.4,8.9,14.7,24.8,14,32
	c-1.2,12.3-25.5,17.3-39,20c-17.4,3.4-38,2.7-51,8c5.1,10.8,18.7,15.6,30,20c11.4,4.4,24.6,8.1,38,11c30.2,6.5,62.6,2.9,93,6
	c28,2.9,60,27.8,44,65c-11.7,27.2-46.9,41.9-85,44c-65.2,3.6-143.6-29.9-177-60c-27.6-24.9-48.5-65.3-45-114
	c3.4-47.4,26.4-94,45-131c23.3-46.3,43.9-96,85-121c13.4-8.2,32.7-14.9,55-14.9z"/></g>
<circle cx="600.2" cy="610.4" r="80"/></g></svg>